<svg xmlns="http://www.w3.org/2000/svg" viewBox="0 0 512 512">
<defs><linearGradient id="g" x1="64" y1="448" x2="448" y2="64" gradientUnits="userSpaceOnUse"><stop stop-color="#38bdf8"/><stop offset=".5" stop-color="#8b5cf6"/><stop offset="1" stop-color="#c084fc"/></linearGradient></defs>
<rect width="512" height="512" rx="112" fill="#080a10"/>
<path d="M132 128h154c52 0 94 42 94 94s-42 94-94 94h-60v68h-94V128Zm94 94v94h60c26 0 47-21 47-47s-21-47-47-47h-60Z" fill="url(#g)"/>
<path d="M226 316h60c52 0 94-42 94-94 0-8-1-16-3-24 2 9 3 18 3 28 0 52-42 94-94 94h-60v68h-94v-72h94Z" fill="#fff" opacity=".92"/>
</svg>